<svg id="Capa_1" enable-background="new 0 0 512 512" height="512" viewBox="0 0 512 512" width="512" xmlns="http://www.w3.org/2000/svg"><g id="XMLID_1405_"><g id="XMLID_1326_"><g id="XMLID_2132_"><path id="XMLID_936_" d="m374 498h-236c-27.57 0-50-22.43-50-50v-384c0-27.57 22.43-50 50-50h73c5.523 0 10 4.478 10 10s-4.477 10-10 10h-73c-16.542 0-30 13.458-30 30v384c0 16.542 13.458 30 30 30h236c16.542 0 30-13.458 30-30v-384c0-16.542-13.458-30-30-30h-73.001c-5.523 0-10-4.478-10-10s4.477-10 10-10h73.001c27.57 0 50 22.43 50 50v384c0 27.57-22.43 50-50 50z"/></g><g id="XMLID_1332_"><path id="XMLID_933_" d="m256 450c-58.449 0-106-47.552-106-106s47.551-106 106-106 106 47.552 106 106-47.551 106-106 106zm0-192c-47.42 0-86 38.579-86 86s38.58 86 86 86 86-38.579 86-86-38.58-86-86-86z"/></g><g id="XMLID_1330_"><path id="XMLID_930_" d="m256 402c-31.981 0-58-26.019-58-58s26.019-58 58-58 58 26.019 58 58-26.019 58-58 58zm0-96c-20.953 0-38 17.047-38 38s17.047 38 38 38 38-17.047 38-38-17.047-38-38-38z"/></g><g id="XMLID_1327_"><g id="XMLID_1329_"><path id="XMLID_927_" d="m256 210c-40.804 0-74-33.196-74-74s33.196-74 74-74 74 33.196 74 74-33.196 74-74 74zm0-128c-29.776 0-54 24.225-54 54s24.224 54 54 54 54-24.225 54-54-24.224-54-54-54z"/></g><g id="XMLID_1328_"><path id="XMLID_924_" d="m256 168c-17.645 0-32-14.355-32-32s14.355-32 32-32 32 14.355 32 32-14.355 32-32 32zm0-44c-6.617 0-12 5.383-12 12s5.383 12 12 12 12-5.383 12-12-5.383-12-12-12z"/></g></g></g><g id="XMLID_1325_"><path id="XMLID_923_" d="m458 338.25c-5.523 0-10-4.478-10-10v-144.5c0-5.523 4.477-10 10-10s10 4.477 10 10v144.5c0 5.522-4.477 10-10 10z"/></g><g id="XMLID_1324_"><path id="XMLID_922_" d="m502 406.75c-5.523 0-10-4.478-10-10v-281.5c0-5.522 4.477-10 10-10s10 4.478 10 10v281.5c0 5.522-4.477 10-10 10z"/></g><g id="XMLID_1323_"><path id="XMLID_921_" d="m54 338.25c-5.523 0-10-4.478-10-10v-144.5c0-5.523 4.477-10 10-10s10 4.477 10 10v144.5c0 5.522-4.477 10-10 10z"/></g><g id="XMLID_1318_"><path id="XMLID_920_" d="m10 406.75c-5.523 0-10-4.478-10-10v-281.5c0-5.522 4.477-10 10-10s10 4.478 10 10v281.5c0 5.522-4.477 10-10 10z"/></g><g id="XMLID_1403_"><g id="XMLID_1404_"><path id="XMLID_919_" d="m256 34c-2.63 0-5.21-1.07-7.07-2.931-1.86-1.859-2.93-4.439-2.93-7.069s1.07-5.21 2.93-7.07 4.44-2.93 7.07-2.93 5.21 1.069 7.07 2.93c1.86 1.86 2.93 4.44 2.93 7.07s-1.07 5.21-2.93 7.069c-1.86 1.861-4.44 2.931-7.07 2.931z"/></g></g></g></svg>